<svg width="100" height="12" fill="none" xmlns="http://www.w3.org/2000/svg"><g clip-path="url('#clip0_84_3')" fill="#E7E7E7"><path d="M81.007 1.987h17.288l1.706-1.982H75.245l-6.87 11.99H84.42l1.152-1.983h-9.174L78.15 6.99h9.174l1.107-1.983H79.3l1.706-3.02Zm-13.23 3.021h-6.824l1.107-1.935c.46-.802.876-1.086 1.567-1.086.692 0 .922.567.553 1.275h6.962l.691-1.275c.507-.944.507-1.982-.737-1.982H58.833c-1.107 0-1.983.142-2.628 1.227l-2.167 3.776c-.6 1.086-.553 1.983.922 1.983h7.053l-1.152 2.077c-.323.566-.738.944-1.706.944-.83 0-.783-.567-.415-1.133h-6.915l-.83 1.416c-.507.897-.092 1.7 1.107 1.7h12.17c1.107 0 2.075-.52 2.628-1.464l2.075-3.54c.461-.897.23-1.983-1.199-1.983Z"/><path d="M97.393 2.337c-.562 0-1.019.453-1.019 1.006a1.017 1.017 0 1 0 2.033 0c0-.553-.454-1.006-1.014-1.006Zm0 1.826a.815.815 0 0 1-.826-.82c0-.447.367-.809.826-.809a.814.814 0 1 1 0 1.629ZM52.055.005H41.636c-1.43 0-3.273 0-4.38 1.982l-4.61 8.025c-.645 1.085-.092 1.982 1.107 1.982h12.124c1.245 0 2.029-.377 2.997-1.982l4.61-8.025c.6-1.038-.323-1.982-1.43-1.982ZM46.2 3.073l-3.458 5.995c-.46.85-.875.944-1.936.944-1.06 0-1.337-.378-1.014-.944l3.503-5.995c.508-.897 1.107-1.086 1.983-1.086.876 0 1.383.284.922 1.086ZM33.799.005h-13.37l-5.762 10.007H1.943L0 11.994h27.621c1.706 0 2.26-.85 2.628-1.51l1.383-2.455c.369-.66.369-1.416-.369-1.84.74 0 1.752-.52 2.351-1.605l1.383-2.408C35.69.996 34.86.005 33.8.005Zm-6.87 8.071-.69 1.133c-.185.378-.508.803-1.292.803h-3.411l1.753-3.021h3.318c.6 0 .6.566.323 1.085Zm2.905-5.003-.692 1.133c-.184.378-.507.802-1.29.802H24.44l1.752-3.02h3.32c.599 0 .599.566.322 1.085Z"/><path d="M97.913 3.08c0-.095-.041-.196-.125-.244a.547.547 0 0 0-.278-.055h-.495v1.132h.168v-.521h.199l.324.521h.194l-.345-.521c.202-.006.358-.09.358-.313Zm-.545.171h-.185v-.34h.294c.142 0 .268.02.268.165 0 .204-.218.175-.377.175Z"/></g><defs><clipPath id="clip0_84_3"><path fill="#fff" d="M0 0h100v12H0z"/></clipPath></defs></svg>